<svg xmlns="http://www.w3.org/2000/svg" xmlns:xlink="http://www.w3.org/1999/xlink" version="1.1" x="0px" y="0px" viewBox="0 0 100 125" enable-background="new 0 0 100 100" xml:space="preserve"><g><path d="M41.754,51.848c-0.968,1.666-2.134,3.189-3.386,4.638c0.816,6.031,3.914,11.58,8.747,15.537l2.886,2.356l2.886-2.36   c4.806-3.931,7.891-9.442,8.739-15.54c-1.249-1.447-2.412-2.968-3.378-4.631l-8.247,7.242L41.754,51.848z"/><path d="M27.221,58.604c4.526-2.332,8.031-6.013,10.334-10.443l-4.484-3.938H16.382c0.409,4.777,2.126,9.356,5.193,13.179   l2.333,2.913L27.221,58.604z"/><path d="M66.22,60.818c-1.157,4.338-3.273,8.293-6.163,11.672c1.982,3.112,4.676,5.751,8.001,7.535l2.659,1.426l1.849-2.384   c2.719-3.508,4.235-7.737,4.513-12.159L70.3,63.415C68.847,62.666,67.502,61.779,66.22,60.818z"/><path d="M29.699,63.415l-6.778,3.493c0.278,4.422,1.794,8.65,4.513,12.159l1.851,2.384l2.659-1.426   c3.308-1.776,5.993-4.405,7.989-7.546c-2.897-3.387-5.014-7.345-6.161-11.655C32.492,61.782,31.149,62.668,29.699,63.415z"/><path d="M50.001,81.367l-6.109-4.992c-1.033,1.472-2.22,2.811-3.498,4.051c0.985,4.94,3.479,9.393,7.303,12.627L50.001,95   l2.303-1.948c3.821-3.23,6.315-7.682,7.301-12.621c-1.285-1.242-2.476-2.581-3.509-4.048L50.001,81.367z"/><path d="M50.001,51.891l14.891-13.077h23.75c-1.816-10.33-14.507-15.363-38.641-15.363c-24.136,0-36.827,5.033-38.643,15.363H35.11   L50.001,51.891z"/><path d="M62.446,48.162c2.302,4.43,5.806,8.11,10.332,10.442l3.314,1.712l2.333-2.909c3.067-3.826,4.784-8.404,5.193-13.183H66.931   L62.446,48.162z"/><rect x="47.296" y="5" width="5.41" height="13.089"/></g><text x="0" y="115" fill="#000000" font-size="5px" font-weight="bold" font-family="'Helvetica Neue', Helvetica, Arial-Unicode, Arial, Sans-serif">Created by Christopher T. Howlett</text><text x="0" y="120" fill="#000000" font-size="5px" font-weight="bold" font-family="'Helvetica Neue', Helvetica, Arial-Unicode, Arial, Sans-serif">from the Noun Project</text></svg>